Love for All and Sharing is the first step to solving all the problems of humanity.

Websites I want to share.

 
http://www.shareintl.org/

 
http://www.lightmiddleway.com


Thank you very much

No credit for me...credit to EVERYONE for sharing

 
http://thepiratebay.org/user/raymondhome/

STORY
June Havens finds her everyday life tangled with that of a secret agent who has realized he isn't supposed to survive his latest mission. As their campaign to stay alive stretches across the globe, they soon learn that all they can count on is each other.

Runtime.......:1h 49mn
Language..........:ENGLISH

Video
ID                               : 0
Format                           : MPEG-4 Visual
Format profile                   : Advanced Simple@L5
Format settings, BVOP            : Yes
Format settings, QPel            : No
Format settings, GMC             : No warppoints
Format settings, Matrix          : Default (H.263)
Muxing mode                      : Packed bitstream
Codec ID                         : XVID
Codec ID/Hint                    : XviD
Duration                         : 1h 49mn
Bit rate                         : 1 343 Kbps
Width                            : 720 pixels
Height                           : 304 pixels
Display aspect ratio             : 2.35:1
Frame rate                       : 23.976 fps
Color space                      : YUV
Chroma subsampling               : 4:2:0
Bit depth                        : 8 bits
Scan type                        : Progressive
Bits/(Pixel*Frame)               : 0.256
Stream size                      : 1.03 GiB (75%)
Writing library                  : XviD 1.1.2 (UTC 2006-11-01)

Audio
ID                               : 1
Format                           : AC-3
Format/Info                      : Audio Coding 3
Mode extension                   : CM (complete main)
Codec ID                         : 2000
Duration                         : 1h 49mn
Bit rate mode                    : Constant
Bit rate                         : 448 Kbps
Channel(s)                       : 6 channels
Channel positions                : Front: L C R, Side: L R, LFE
Sampling rate                    : 48.0 KHz
Bit depth                        : 16 bits
Stream size                      : 351 MiB (25%)
Alignment                        : Aligned on interleaves
Interleave, duration             : 42 ms (1.00 video frame)
Interleave, preload duration     : 512 ms

IMAGiNE NOTES
VIDEO:ZMG DVDR .............Thanks guys
AUDIO:ZMG DVDR..............Thanks guys

Right this is a straigth forward rip of the ZMG dvdr... just wrote a script added a few touches here and there and away it went. The audio is the original AC3 448 track just muxed to our encode.

credit IMAGiNE & to all the people who made it possible for us to share this...especially EVERYONE involve in the production of the movie...IF YOU LIKE IT...BUY IT :)

BIG BIG BIG GREETZ & THANKS:
ALL members & STAFFS of PIRATEBAY, EXTRATORRENT, KINGDOM, IPTORRENTS, DEMONOID & AHASHARE :)
KaOsUSC, Motley Crue, InFeCtiouS, BADASS, W1ck3d1nt3ntz, ceo54, DaRkReAlM, ghostman, karakurachow, megaplay, Emery1337x, SaM, geordieboy1979, timamirrockdude, Noir, Shedevil, bone111, JorgeMontana, BlueLady, UniversalAbsurdity, mc68, TheFalcon007, pardeep333, X, DR67, DiNGiE, xclusive666, pro2kon, EMUworld, wrath, oziman, rubak1, BigPerm1828, skynetcentral, IZON, bluepeas, Dibya9999, Treezluv2draw, pitic, FASAMOO, W1CK3D1NT3Z, GRIND3R, extremezone, MonsterTV, BLaZE, SAFCuk009, Fabreezy, MXMG, Hellb0y, iwanttobelieveinaj, velvetfog, mustaphanaru & many more :)
ALL the awesome people who are SHARING (ALL THE UPLOADERS, THE RIPPERS, THE SCENE GROUPS, ETC, THE WHOLE P2P COMMUNITY, even the CRITICIZERS )
***wish i could list everyone***Thank you very much everyone & i mean EVERYONE :)

*****help what we can with others in need...the world is ONE big family*****

SCREENSHOTS
 
http://imagine.takagari.com/knight%20and%20day%20rip/vlcsnap-473585.png
 
http://imagine.takagari.com/knight%20and%20day%20rip/vlcsnap-474615.png
 
http://imagine.takagari.com/knight%20and%20day%20rip/vlcsnap-475677.png
 
http://imagine.takagari.com/knight%20and%20day%20rip/vlcsnap-475770.png
 
http://imagine.takagari.com/knight%20and%20day%20rip/vlcsnap-476129.png
 
http://imagine.takagari.com/knight%20and%20day%20rip/vlcsnap-476434.png

DON'T THANK US...HELP SOMEONE IN NEED :)

MAY YOU & YOUR LOVED ONES ALWAYS BE BLESSED WITH LIGHT, LOVE, JOY, PEACE, GOOD HEALTH & ABUNDANCE :)
 
http://www.imdb.com/title/tt1013743/